PathFileType	4	(X/Y/Z)	C:/Users/beibeiliu/ov580/test_trc/User2\sequence.14_training_dense_left.trc
DataRate	CameraRate	NumFrames	NumMarkers	Units	OrigDataRate	OrigDataStartFrame	OrigNumFrames
120	120	20	19	mm	120	368	420
Frame#	Time	ThumbCMC			ThumbMCP			ThumbIP			ThumbTip			IndexMCP			IndexPIP			IndexTip			MiddleMCP			MiddlePIP			MiddleTip			RingMCP			RingPIP			RingTip			PinkyMCP			PinkyPIP			PinkyTip			BackHand1			BackHand2			BackHand3	
		X0	Y0	Z0	X1	Y1	Z1	X2	Y2	Z2	X3	Y3	Z3	X4	Y4	Z4	X5	Y5	Z5	X6	Y6	Z6	X7	Y7	Z7	X8	Y8	Z8	X9	Y9	Z9	X10	Y10	Z10	X11	Y11	Z11	X12	Y12	Z12	X13	Y13	Z13	X14	Y14	Z14	X15	Y15	Z15	X16	Y16	Z16	X17	Y17	Z17	X18	Y18	Z18	
367	3.05833	-134.392	29.5842	85.1603	-123.498	14.1808	50.7962	-126.898	-2.66623	22.1681	-143.166	-19.6258	3.09303	-185.798	48.3103	16.6181	-193.141	46.9479	-7.54701	-193.603	43.4885	-38.1968	-197.827	19.0725	10.4295	-179.689	-3.7073	-11.148	-154.138	-21.7255	15.8848	-207.751	1.00584	17.4308	-192.064	-18.0595	-1.50803	-160.436	-30.8446	20.2163	-223.609	-11.4496	43.0209	-231.218	-16.612	16.6564	-235.751	-21.254	-9.68788	-207.325	15.4458	77.2191	-199.986	19.0456	112.735	-177.66	43.148	89.5012	
368	3.06667	-137.865	30.0277	84.7131	-119.902	11.7841	51.1506	-119.412	-10.0933	21.6953	-138.566	-31.2228	6.87044	-183.713	35.5334	11.7257	-190.151	28.9836	-18.4503	-191.849	18.507	-44.01	-193.671	4.12996	8.32443	-171.514	-22.0006	-5.83655	-145.525	-30.0504	18.8599	-201.125	-14.0674	15.2013	-183.437	-33.3589	3.27129	-150.666	-38.3785	24.7981	-218.767	-22.2209	40.1654	-225.711	-34.3499	16.1701	-230.661	-46.2806	-3.11878	-205.204	12.4931	75.605	-200.248	16.7235	110.206	-180.266	40.8476	83.3746	
369	3.075	-137.309	28.5983	79.9279	-119.8	6.16695	57.0881	-117.245	-19.0151	29.9239	-126.577	-39.8815	21.2601	-179.415	20.4498	13.1425	-184.216	10.1858	-19.2592	-186.106	-3.1946	-40.0025	-186.172	-9.81705	8.27357	-162.984	-32.4197	-2.22289	-138.763	-40.2625	30.4837	-195.325	-29.4124	19.5082	-171.086	-49.4696	11.362	-142.371	-48.1577	34.322	-209.808	-30.2413	47.6854	-217.651	-49.592	26.5871	-217.452	-64.2721	2.14315	-203.07	4.53027	73.9668	-203.117	16.5753	108.233	-177.96	39.3545	81.1245	
370	3.08333	-131.144	28.5971	82.1363	-111.987	3.17494	63.1141	-110.647	-26.1155	39.8796	-121.593	-50.4142	29.1884	-167.458	14.1904	12.3903	-171.583	0.748272	-16.9659	-172.52	-15.5541	-37.9352	-174.93	-16.5307	13.1077	-152.099	-43.4974	5.07392	-126.512	-42.7958	40.0943	-183.424	-34.5246	22.8732	-159.623	-56.9304	18.0834	-133.634	-53.8515	43.5019	-202.89	-37.3123	52.0873	-206.275	-56.9186	28.3399	-203.934	-79.1905	6.4245	-199.31	4.70701	72.68	-198.149	18.6765	105.387	-176.124	32.9494	77.4689	
371	3.09167	-127.943	31.3696	88.4901	-105.06	4.13023	66.2347	-100.075	-25.1708	50.1817	-107.447	-50.5174	41.8913	-159.442	8.54471	10.553	-162.168	-8.89312	-15.1751	-162.711	-28.0926	-34.4565	-162.179	-23.0325	13.8578	-135.95	-49.748	15.1337	-117.947	-43.8424	50.1925	-176.439	-40.3243	31.2883	-151.275	-61.9011	26.6719	-124.631	-56.8583	52.2768	-195.944	-45.4852	50.1796	-194.449	-63.6882	34.2418	-185.474	-84.4035	14.8666	-193.177	4.52775	76.0171	-196.036	18.297	101.998	-171.64	35.5989	78.9339	
372	3.1	-126.875	36.0431	90.8078	-98.361	11.5411	74.9562	-92.0212	-19.7679	56.5156	-99.3133	-48.7442	46.1281	-150.935	7.18037	14.3424	-151.831	-10.7651	-8.40701	-148.169	-28.2222	-31.0372	-152.693	-24.373	19.3956	-121.959	-45.7593	19.8107	-106.499	-40.3365	54.5496	-162.216	-40.7753	32.7136	-135.609	-61.3136	32.6515	-110.309	-48.85	60.8889	-179.643	-46.3542	49.5927	-177.602	-69.0104	35.5485	-165.673	-88.0669	17.0066	-189.093	-3.28039	75.7294	-192.042	16.9983	103.266	-171.19	32.2751	79.4184	
373	3.10833	-126.2	43.2426	90.9807	-97.252	22.1028	78.9364	-81.6964	-7.60303	61.7029	-81.7948	-35.8191	52.3113	-143.333	10.5554	14.1581	-139.084	-5.39694	-10.0175	-133.644	-22.0437	-31.4103	-139.866	-22.2671	21.2183	-105.492	-40.9381	26.1295	-95.3514	-27.5319	62.9912	-145.013	-41.216	33.2146	-113.024	-52.7273	37.1049	-98.0211	-39.9074	67.3908	-166.75	-50.1072	55.6815	-156.054	-68.3571	32.6986	-144.937	-83.7966	18.9174	-181.301	-5.66725	73.8184	-190.759	12.897	102.812	-171.802	31.4057	75.4372	
374	3.11667	-130.344	49.1508	91.7547	-95.6147	33.7747	78.4016	-75.1031	10.3605	67.4343	-72.737	-20.25	59.2979	-139.208	11.8291	17.2812	-132.168	-3.12486	-7.52746	-122.009	-14.639	-28.1527	-125.024	-21.3307	22.0918	-92.9692	-28.5278	24.9617	-84.2432	-13.4649	67.5005	-130.194	-36.8761	36.7907	-96.6224	-44.1965	40.5818	-84.6535	-23.9851	69.5592	-148.092	-45.7463	53.4739	-136.195	-67.9268	36.1107	-124.018	-80.3496	21.3287	-174.417	-11.1676	72.2181	-186.629	4.70319	100.035	-171.057	31.9131	72.8084	
375	3.125	-139.749	51.5402	90.8486	-100.135	45.4426	79.0529	-69.6152	27.24	68.4677	-61.7576	-3.8987	61.0163	-135.21	10.7321	18.6647	-124.813	0.395748	-7.53304	-111.716	-10.7095	-33.1831	-118.515	-13.486	25.3372	-79.2535	-15.936	29.9525	-74.6963	1.36316	64.6788	-118.121	-30.2573	38.6335	-84.6194	-30.7972	38.6547	-73.749	-12.1438	72.2823	-132.96	-47.9509	58.2686	-118.544	-59.5186	41.0662	-103.169	-71.2433	22.315	-165.026	-14.0689	72.4203	-184.57	-1.98557	99.8186	-174.034	25.467	75.8352	
376	3.13333	-146.099	52.257	86.7869	-105.337	57.0018	76.6073	-75.6429	41.1202	67.9939	-58.349	18.5592	64.0161	-132.064	10.3618	14.2127	-120.219	4.2463	-11.6968	-107.573	-4.36361	-29.5785	-110.169	-9.8588	25.3972	-73.2879	0.158395	28.5359	-70.6176	19.4259	62.9212	-102.244	-26.1566	38.6537	-72.8209	-20.849	43.5688	-67.1753	5.24389	66.3048	-119.937	-41.4178	57.3666	-103.854	-53.5611	43.5163	-86.3693	-60.8504	21.9229	-160.528	-16.1234	77.3913	-178.267	-6.47846	97.3445	-170.929	19.3906	69.9758	
377	3.14167	-153.49	56.1837	83.9731	-115.445	62.9303	72.8278	-82.6343	54.337	64.7599	-61.9743	36.0801	61.7266	-134.238	15.4151	11.2122	-120.692	10.1102	-12.5841	-105.378	-0.525444	-31.6037	-105.725	-0.823495	19.8086	-73.5196	10.8763	24.2245	-72.7976	31.2072	61.1132	-97.4771	-14.4015	36.5887	-70.0748	-5.10438	41.1755	-68.7199	21.313	65.447	-111.826	-34.0665	59.8159	-93.5758	-46.0681	45.1568	-78.2037	-52.0555	24.4581	-153.726	-14.3288	76.1348	-171.543	-13.0154	99.8688	-173.446	14.7767	70.2772	
378	3.15	-159.777	54.2128	77.9841	-124.311	68.4892	66.7945	-89.5405	67.8282	57.3871	-69.3063	45.3956	55.7396	-136.826	12.7097	8.57176	-123.663	10.0264	-17.4084	-106.45	0.298152	-34.6442	-107.951	2.07924	19.7035	-74.4024	19.2307	25.4993	-78.4594	42.2641	55.8322	-98.2153	-11.0965	37.8419	-68.798	5.9209	37.854	-74.6039	34.2697	64.3396	-105.321	-30.9103	57.3952	-85.8542	-40.0635	41.8813	-75.6586	-44.4795	22.0251	-148.761	-17.5017	76.6311	-169.117	-17.5574	97.6313	-176.935	11.7661	69.4838	
379	3.15833	-168.027	55.191	75.9568	-135.678	74.0814	62.4341	-103.177	70.8342	52.4408	-74.7578	55.1467	46.8438	-143.49	13.1285	9.34858	-130.089	7.11088	-14.9155	-113.99	3.21664	-40.7041	-111.366	5.03024	14.1296	-81.4387	22.5061	16.7412	-86.2804	48.7036	47.1382	-98.5653	-3.10397	28.1547	-74.0829	12.226	31.7226	-79.511	39.4664	53.6233	-104.535	-25.2593	51.4051	-87.1148	-33.5853	37.4388	-71.7225	-42.4537	21.0518	-146.594	-17.797	75.7304	-167.07	-17.0022	97.3043	-178.244	11.4265	67.6912	
380	3.16667	-171.581	50.277	72.8231	-142.466	72.8224	55.2669	-109.253	73.8536	41.0806	-87.1511	54.4163	39.5845	-151.243	10.9939	2.04094	-137.381	5.66533	-20.686	-126.004	3.68111	-45.5573	-119.249	4.95613	12.7937	-88.1244	26.7672	10.0388	-97.3478	53.8574	43.853	-102.934	-2.52755	24.9535	-79.4806	21.0886	23.7263	-88.6051	45.0796	49.1415	-104.91	-24.3254	48.6485	-89.1625	-30.0005	32.6618	-73.28	-39.4777	13.9112	-147.199	-18.2761	68.0073	-167.108	-14.747	94.4052	-177.788	6.41422	65.4717	
381	3.175	-176.551	46.503	71.3042	-150.486	69.5429	50.5893	-117.551	72.5502	32.1684	-93.519	56.9662	30.955	-156.031	6.03835	0.416949	-150.16	5.4172	-22.6792	-132.392	-2.37795	-51.0282	-121.65	4.36683	6.44844	-97.0333	30.2428	4.58144	-104.582	53.1401	36.7551	-107.296	-5.0194	21.818	-86.9897	20.8438	16.6333	-93.0148	45.622	41.0604	-108.587	-22.2471	46.7794	-90.6712	-31.4542	27.9936	-79.5987	-37.278	6.67356	-149.178	-19.4904	68.0801	-166.479	-18.0498	97.8821	-181.938	2.64575	68.8939	
382	3.18333	-183.643	48.3053	70.4379	-157.133	65.5124	48.8923	-127.292	73.4035	29.4557	-100.465	58.2797	21.5872	-164.827	4.81651	1.44869	-156.031	-1.35854	-29.3444	-145.611	-5.12526	-54.073	-130.438	3.91955	0.738358	-106.77	31.3996	-3.93519	-111.561	53.1238	31.4218	-111.451	-4.40682	13.3076	-93.2606	19.0307	9.5658	-99.6012	46.2757	35.7934	-108.029	-26.5985	41.443	-96.9356	-29.9485	23.2207	-82.5098	-42.9092	4.08077	-151.933	-17.0831	64.3961	-164.557	-17.1761	95.6411	-182.746	-1.77673	69.2862	
383	3.19167	-182.027	42.4319	67.2657	-160.93	67.8209	46.2428	-130.324	66.4443	25.6403	-104.776	52.2778	17.4375	-173.81	1.80302	-2.04916	-164.754	-3.43559	-27.474	-155.223	-7.35094	-57.2732	-135.904	-2.30193	2.84208	-111.6	23.3815	-7.31209	-117.792	53.0225	23.2158	-120.132	-5.75621	10.5997	-101.565	17.6224	2.68546	-107.399	43.8151	27.1547	-113.265	-26.4649	38.4878	-101.266	-34.3441	15.104	-88.4153	-45.6007	-3.74021	-154.161	-17.8732	65.1042	-164.893	-21.1884	97.6215	-188.687	1.16804	68.472	
384	3.2	-184.989	48.8493	70.651	-158.772	65.3662	42.8678	-131.28	69.7211	20.7414	-107.324	50.9197	14.1331	-177.153	0.84905	-3.02603	-174.246	-3.31049	-27.8672	-162.121	-10.4013	-55.7569	-145.868	-2.37289	-0.966693	-118.545	20.3527	-11.783	-118.957	48.074	19.9131	-127.015	-10.9017	9.07537	-104.48	10.218	-1.35638	-105.309	37.9401	25.5041	-121.013	-26.8781	38.0846	-110.332	-37.7098	12.2044	-102.454	-50.5235	-8.5247	-155.495	-20.6179	63.9476	-165.916	-20.9852	95.3782	-188.646	-0.0591758	66.7604	
385	3.20833	-176.872	48.521	70.9425	-153.225	65.1497	42.9187	-126.667	65.4924	22.5265	-104.49	45.6817	10.1585	-181.525	5.63999	3.17834	-183.461	4.01856	-27.4588	-175.035	-3.34436	-57.3099	-152.672	-1.1885	-3.25143	-122.576	18.4915	-13.6755	-116.762	42.7756	17.0058	-133.688	-14.5998	9.34492	-113.583	5.64439	-5.81969	-106.814	34.2166	22.6459	-128.625	-31.5727	36.4941	-123.119	-40.3336	13.7804	-117.78	-52.7948	-10.6084	-160.934	-20.7534	66.1773	-171.137	-14.6345	99.0128	-188.468	5.9443	71.5843	
386	3.21667	-170.411	52.64	77.1417	-143.312	65.2264	46.2748	-119.03	61.8246	21.5616	-102.672	38.2091	9.59217	-188.308	14.7636	2.12702	-186.986	10.5971	-26.5908	-186.6	9.43707	-53.3431	-158.028	-0.835242	-2.3111	-129.727	15.9145	-16.9996	-114.697	38.2049	15.6095	-143.005	-13.2145	6.15486	-120.262	2.30019	-6.44417	-105.553	25.5752	17.4756	-141.531	-29.7144	33.9534	-137.364	-44.4104	6.44026	-135.029	-52.6264	-12.6338	-165.262	-17.5989	65.447	-173.388	-12.4507	99.7059	-190.868	11.8644	73.9557	
